<?xml version="1.0" standalone="no"?>
<!DOCTYPE svg PUBLIC "-//W3C//DTD SVG 20010904//EN"
 "http://www.w3.org/TR/2001/REC-SVG-20010904/DTD/svg10.dtd">
<svg version="1.0" xmlns="http://www.w3.org/2000/svg"
 width="342.000000pt" height="324.000000pt" viewBox="0 0 342.000000 324.000000"
 preserveAspectRatio="xMidYMid meet">

<g transform="translate(0.000000,324.000000) scale(0.100000,-0.100000)"
fill="#000000" stroke="none">
<path d="M1615 3096 c-351 -94 -692 -361 -775 -606 -18 -53 -21 -81 -18 -150
5 -102 30 -158 108 -243 73 -79 168 -140 421 -268 l221 -110 33 38 c19 21 34
41 35 44 0 4 32 33 70 65 l70 58 -212 108 c-233 118 -328 182 -399 271 -122
151 -118 378 9 505 49 49 150 100 234 118 132 28 348 10 441 -38 35 -18 39
-23 35 -53 l-4 -33 39 21 c67 38 196 145 212 177 15 29 15 31 -8 54 -41 41
-117 58 -277 62 -129 4 -155 2 -235 -20z"/>
<path d="M2191 2024 c-228 -67 -452 -227 -560 -398 -47 -75 -45 -76 64 -76
l95 0 0 63 c0 154 114 261 308 289 96 14 226 0 298 -32 40 -17 46 -23 42 -45
-3 -14 -2 -25 1 -25 12 0 105 67 154 110 26 23 47 50 47 59 0 76 -268 109
-449 55z"/>
<path d="M1950 1744 c-49 -42 -67 -90 -61 -171 1 -22 4 -23 116 -23 128 0 125
-2 101 68 -18 51 -92 152 -111 152 -7 0 -27 -12 -45 -26z"/>
<path d="M895 1471 c-17 -7 -16 -9 10 -13 35 -7 53 1 34 13 -16 10 -18 10 -44
0z"/>
<path d="M1250 1470 c-11 -7 -12 -10 -2 -10 10 0 13 -21 10 -95 -3 -81 -1 -95
13 -95 11 0 15 8 12 28 -2 15 0 62 5 105 7 67 6 77 -7 77 -9 0 -23 -5 -31 -10z"/>
<path d="M1395 1470 c-46 -5 -51 -7 -22 -8 l38 -2 -3 -95 c-3 -84 -1 -95 14
-95 18 0 33 16 21 22 -5 1 -7 40 -5 86 l4 82 33 0 c19 0 37 5 40 10 7 11 -22
11 -120 0z"/>
<path d="M1713 1470 c-13 -5 -23 -11 -23 -12 0 -8 65 0 68 8 4 13 -19 15 -45
4z"/>
<path d="M1010 1380 c5 -97 12 -110 60 -110 14 0 31 4 38 8 8 6 1 9 -19 9 -48
0 -61 24 -57 111 2 59 0 72 -12 72 -13 0 -14 -14 -10 -90z"/>
<path d="M1138 1461 c10 -6 13 -32 10 -100 l-3 -91 25 0 c17 0 21 3 12 9 -10
6 -13 32 -10 100 l3 91 -25 0 c-17 0 -21 -3 -12 -9z"/>
<path d="M1891 1457 c-6 -8 -24 -47 -41 -87 -17 -40 -35 -79 -41 -87 -9 -10
-7 -13 10 -13 12 0 20 4 16 9 -9 16 16 59 39 65 38 10 45 6 56 -34 6 -23 17
-40 25 -40 16 0 29 17 16 22 -5 1 -20 42 -35 91 -15 48 -28 87 -30 87 -2 0 -9
-6 -15 -13z m13 -59 c9 -35 8 -38 -18 -38 -23 0 -24 2 -13 30 14 36 23 38 31
8z"/>
<path d="M2055 1388 c18 -46 35 -92 39 -103 l7 -20 16 20 c23 30 73 137 73
157 0 9 6 19 13 21 6 3 0 6 -14 6 -23 1 -25 -2 -21 -28 2 -19 -6 -51 -23 -88
l-27 -58 -30 88 c-22 66 -34 87 -48 87 -15 0 -14 -9 15 -82z"/>
<path d="M2275 1388 c18 -46 35 -92 39 -103 l7 -20 16 20 c23 30 73 137 73
157 0 9 6 19 13 21 6 3 0 6 -14 6 -23 1 -25 -2 -21 -28 2 -19 -6 -51 -23 -88
l-27 -58 -30 88 c-22 66 -34 87 -48 87 -15 0 -14 -9 15 -82z"/>
<path d="M2496 1410 c29 -48 35 -68 32 -100 -3 -31 0 -40 12 -40 12 0 14 10
12 45 -3 37 1 54 22 85 14 22 26 44 26 49 0 5 6 12 13 14 6 3 -1 6 -18 6 -20
0 -26 -2 -17 -8 12 -7 11 -14 -2 -39 -23 -45 -30 -45 -56 4 -15 26 -32 44 -42
44 -14 0 -11 -10 18 -60z"/>
<path d="M844 1435 c-21 -33 -13 -50 36 -75 26 -13 40 -27 40 -40 0 -23 15
-27 24 -5 8 21 -3 43 -24 50 -10 3 -30 17 -44 30 -22 21 -25 28 -16 45 15 28
4 25 -16 -5z"/>
<path d="M1662 1433 c-17 -30 -9 -44 44 -76 38 -23 44 -31 38 -50 -6 -20 -5
-20 10 -8 27 22 15 53 -29 78 -28 15 -42 31 -45 50 -6 28 -6 28 -18 6z"/>
<path d="M826 1292 c-12 -11 -5 -20 18 -24 38 -7 49 6 16 19 -16 6 -31 8 -34
5z"/>
<path d="M1645 1289 c-4 -6 -5 -13 -2 -15 10 -10 68 -7 79 4 8 8 5 9 -10 6
-11 -3 -29 -1 -40 5 -15 8 -23 8 -27 0z"/>
<path d="M785 1097 c-110 -91 -132 -120 -121 -160 8 -35 37 -60 103 -92 134
-63 335 -102 442 -84 130 21 353 118 503 220 57 39 60 43 43 55 -25 18 -28 18
-83 -10 -85 -43 -176 -60 -317 -60 -147 -1 -242 20 -348 76 -68 37 -97 69 -97
109 0 17 -5 29 -12 29 -7 -1 -58 -38 -113 -83z"/>
<path d="M1755 1155 c17 -14 132 -77 257 -141 249 -127 321 -180 372 -274 24
-43 28 -64 28 -124 0 -87 -17 -131 -72 -186 -124 -124 -411 -146 -609 -46 -60
31 -86 65 -77 102 8 30 15 34 -107 -60 -123 -96 -126 -144 -14 -196 152 -72
316 -90 442 -50 227 72 500 262 604 419 59 89 64 178 15 278 -39 81 -123 150
-284 232 l-138 71 -223 0 -224 -1 30 -24z"/>
</g>
</svg>
