<?xml version="1.0" standalone="no"?>
<!DOCTYPE svg PUBLIC "-//W3C//DTD SVG 20010904//EN"
 "http://www.w3.org/TR/2001/REC-SVG-20010904/DTD/svg10.dtd">
<svg version="1.0" xmlns="http://www.w3.org/2000/svg"
 width="500.000000pt" height="500.000000pt" viewBox="0 0 500.000000 500.000000"
 preserveAspectRatio="xMidYMid meet">

<g transform="translate(0.000000,500.000000) scale(0.100000,-0.100000)"
fill="#000000" stroke="none">
<path d="M429 2981 c-45 -14 -68 -31 -84 -61 -43 -82 10 -161 125 -185 59 -13
90 -33 90 -60 0 -28 -26 -45 -69 -45 -30 0 -71 29 -71 50 0 6 -21 10 -46 10
l-46 0 6 -32 c20 -102 193 -143 281 -67 39 35 51 75 35 124 -14 41 -52 67
-143 95 -77 24 -100 49 -71 81 23 25 78 25 104 -1 11 -11 20 -24 20 -30 0 -5
20 -10 45 -10 52 0 58 14 25 68 -35 56 -126 85 -201 63z"/>
<path d="M860 2830 c0 -165 8 -202 55 -238 101 -79 254 -34 284 83 6 24 11
103 11 174 l0 131 -50 0 -50 0 0 -145 c0 -142 -1 -147 -25 -170 -25 -26 -42
-29 -83 -19 -42 12 -52 51 -52 199 l0 135 -45 0 -45 0 0 -150z"/>
<path d="M1430 2770 l0 -210 45 0 45 0 0 210 0 210 -45 0 -45 0 0 -210z"/>
<path d="M1720 2935 l0 -45 65 0 65 0 0 -165 0 -165 45 0 45 0 0 165 0 165 70
0 70 0 0 45 0 45 -180 0 -180 0 0 -45z"/>
<path d="M2290 2915 l0 -65 620 0 620 0 0 65 0 65 -620 0 -620 0 0 -65z"/>
<path d="M2355 2706 c-57 -21 -85 -57 -85 -109 0 -24 7 -53 16 -65 19 -27 77
-58 127 -67 41 -8 87 -39 87 -59 0 -22 -35 -46 -66 -46 -34 0 -74 25 -74 46 0
10 -13 14 -49 14 l-50 0 8 -28 c19 -66 59 -98 135 -108 107 -15 186 38 186
126 0 42 -4 52 -33 77 -20 17 -60 37 -98 47 -92 26 -119 55 -83 90 32 33 114
9 114 -32 0 -8 19 -12 50 -12 50 0 50 0 44 28 -10 40 -33 71 -66 88 -43 22
-117 27 -163 10z"/>
<path d="M2917 2703 c-4 -7 -76 -185 -148 -365 l-19 -48 51 0 c48 0 51 2 65
35 l14 35 84 0 85 0 12 -35 c13 -34 15 -35 65 -35 l52 0 -83 208 -83 207 -45
3 c-25 2 -47 -1 -50 -5z m97 -240 c7 -22 5 -23 -48 -23 -31 0 -56 2 -56 4 0 5
25 73 40 111 l12 30 23 -50 c12 -27 25 -60 29 -72z"/>
<path d="M3320 2703 c0 -5 34 -99 77 -210 l77 -203 46 0 47 0 80 208 80 207
-40 3 c-21 2 -45 1 -51 -1 -7 -3 -34 -64 -61 -136 -26 -72 -51 -131 -54 -131
-3 0 -28 61 -56 135 l-49 135 -48 0 c-26 0 -48 -3 -48 -7z"/>
<path d="M3870 2703 c0 -5 34 -99 77 -210 l77 -203 46 0 47 0 80 208 80 207
-40 3 c-21 2 -45 1 -51 -1 -7 -3 -34 -64 -61 -136 -26 -72 -51 -131 -54 -131
-3 0 -28 61 -56 135 l-49 135 -48 0 c-26 0 -48 -3 -48 -7z"/>
<path d="M4420 2706 c0 -2 34 -63 75 -136 75 -132 75 -133 75 -206 l0 -74 50
0 50 0 0 79 c0 78 1 81 56 178 31 54 65 113 76 131 l20 32 -55 0 -55 0 -42
-77 c-23 -43 -45 -81 -49 -85 -3 -4 -27 30 -51 77 l-45 85 -52 0 c-29 0 -53
-2 -53 -4z"/>
<path d="M860 2330 l0 -70 615 0 615 0 0 70 0 70 -615 0 -615 0 0 -70z"/>
</g>
</svg>
