<?xml version="1.0" standalone="no"?>
<!DOCTYPE svg PUBLIC "-//W3C//DTD SVG 20010904//EN"
 "http://www.w3.org/TR/2001/REC-SVG-20010904/DTD/svg10.dtd">
<svg version="1.0" xmlns="http://www.w3.org/2000/svg"
 width="499.000000pt" height="129.000000pt" viewBox="0 0 499.000000 129.000000"
 preserveAspectRatio="xMidYMid meet">

<g transform="translate(0.000000,129.000000) scale(0.100000,-0.100000)"
fill="#000000" stroke="none">
<path d="M403 961 c-68 -32 -92 -104 -54 -166 19 -32 65 -56 138 -75 67 -17
90 -51 57 -84 -29 -29 -108 -12 -119 26 -5 14 -16 18 -51 18 -40 0 -44 -2 -44
-25 0 -55 87 -115 166 -115 116 0 192 89 151 176 -18 37 -61 63 -149 88 -69
20 -89 45 -58 76 34 34 95 25 111 -16 7 -20 15 -24 54 -24 37 0 45 3 45 19 0
28 -42 84 -75 100 -49 24 -124 24 -172 2z"/>
<path d="M862 806 c3 -188 9 -202 89 -244 80 -42 189 -14 234 60 17 28 20 54
23 191 l4 157 -51 0 -51 0 0 -143 c0 -156 -7 -179 -56 -191 -39 -10 -81 11
-93 46 -6 17 -11 89 -11 159 l0 129 -46 0 -45 0 3 -164z"/>
<path d="M1430 760 l0 -210 45 0 45 0 0 210 0 210 -45 0 -45 0 0 -210z"/>
<path d="M1712 928 l3 -43 68 -3 67 -3 0 -164 0 -165 45 0 45 0 0 165 0 165
70 0 70 0 0 45 0 45 -186 0 -185 0 3 -42z"/>
<path d="M2290 905 l0 -65 620 0 620 0 0 65 0 65 -620 0 -620 0 0 -65z"/>
<path d="M2351 697 c-52 -20 -81 -60 -81 -112 0 -65 33 -99 123 -126 84 -24
118 -50 101 -77 -27 -43 -109 -39 -129 6 -8 18 -18 22 -57 22 -51 0 -50 3 -26
-62 32 -86 218 -104 282 -27 20 23 26 42 26 78 0 63 -30 91 -134 128 -91 32
-110 51 -82 82 11 12 31 21 45 21 32 0 71 -25 71 -46 0 -10 13 -14 51 -14 51
0 51 0 44 28 -16 67 -64 101 -149 108 -28 2 -66 -2 -85 -9z"/>
<path d="M2852 538 c-35 -90 -72 -184 -83 -210 l-19 -48 51 0 c48 0 51 2 65
35 l14 35 84 0 85 0 12 -35 c13 -34 15 -35 65 -35 l52 0 -83 208 -83 207 -48
3 -49 3 -63 -163z m136 -20 c11 -29 23 -61 27 -70 6 -16 0 -18 -49 -18 -31 0
-56 2 -56 5 0 2 8 26 18 52 11 26 22 56 25 66 10 26 14 22 35 -35z"/>
<path d="M3393 490 l80 -210 47 0 c36 0 50 4 55 17 3 10 36 95 72 188 36 94
69 180 74 193 8 21 6 22 -44 22 l-52 0 -49 -135 c-26 -74 -52 -133 -56 -130
-4 2 -28 63 -55 135 l-48 130 -52 0 -52 0 80 -210z"/>
<path d="M3943 490 l80 -210 47 0 c36 0 50 4 55 17 3 10 36 95 72 188 36 94
69 180 74 193 8 21 6 22 -44 22 l-52 0 -49 -135 c-26 -74 -52 -133 -56 -130
-4 2 -28 63 -55 135 l-48 130 -52 0 -52 0 80 -210z"/>
<path d="M4420 695 c0 -3 34 -65 75 -136 75 -131 75 -131 75 -205 l0 -74 50 0
50 0 0 77 c0 75 1 78 62 187 34 61 68 121 76 134 14 22 14 22 -41 22 l-55 0
-47 -86 -48 -87 -46 87 -46 86 -52 0 c-29 0 -53 -2 -53 -5z"/>
<path d="M860 320 l0 -70 615 0 615 0 0 70 0 70 -615 0 -615 0 0 -70z"/>
</g>
</svg>
